<svg width="55" height="55" viewBox="0 0 55 55" fill="none" xmlns="http://www.w3.org/2000/svg">
<path d="M32.655 44.686V34.3732C32.655 33.9174 32.4739 33.4802 32.1516 33.1579C31.8293 32.8356 31.3921 32.6545 30.9362 32.6545H24.0612C23.6054 32.6545 23.1682 32.8356 22.8459 33.1579C22.5236 33.4802 22.3425 33.9174 22.3425 34.3732V44.686C22.3425 45.1418 22.1614 45.5789 21.8392 45.9012C21.5169 46.2236 21.0798 46.4047 20.624 46.4047L10.3127 46.4061C10.087 46.4061 9.86346 46.3617 9.65491 46.2753C9.44636 46.1889 9.25686 46.0623 9.09724 45.9027C8.93761 45.7431 8.81099 45.5537 8.7246 45.3451C8.63821 45.1366 8.59375 44.9131 8.59375 44.6873V24.8228C8.59375 24.5833 8.64379 24.3465 8.74065 24.1275C8.83751 23.9085 8.97907 23.7122 9.15623 23.5511L26.3426 7.92449C26.6589 7.63683 27.0712 7.47743 27.4988 7.47742C27.9264 7.4774 28.3386 7.63678 28.655 7.92442L45.8437 23.5511C46.0209 23.7122 46.1625 23.9085 46.2593 24.1275C46.3562 24.3465 46.4063 24.5834 46.4062 24.8229V44.6873C46.4063 44.9131 46.3618 45.1366 46.2754 45.3451C46.189 45.5537 46.0624 45.7431 45.9028 45.9027C45.7431 46.0624 45.5536 46.189 45.3451 46.2753C45.1365 46.3617 44.913 46.4061 44.6873 46.4061L34.3735 46.4047C33.9177 46.4047 33.4806 46.2236 33.1583 45.9012C32.836 45.5789 32.655 45.1418 32.655 44.686V44.686Z" stroke="black" stroke-width="4" stroke-linecap="round" stroke-linejoin="round"/>
</svg>
