<svg width="current" height="current" viewBox="0 0 50 50" fill="none" xmlns="http://www.w3.org/2000/svg">
<path d="M18.197 23.9908C16.9925 20.9864 16.8623 17.6583 17.8284 14.569C18.7944 11.4797 20.7975 8.81875 23.499 7.03585C26.2005 5.25295 29.4348 4.45749 32.6551 4.78394C35.8754 5.11039 38.8842 6.53872 41.173 8.82749C43.4618 11.1163 44.8901 14.1251 45.2165 17.3454C45.543 20.5657 44.7475 23.8 42.9646 26.5015C41.1817 29.203 38.5207 31.2061 35.4314 32.1721C32.3421 33.1382 29.014 33.0079 26.0097 31.8034L26.0098 31.8032L23.438 34.375H18.7505V39.0625H14.063V43.75H6.25049V35.9375L18.1974 23.9906L18.197 23.9908Z" stroke="black" stroke-width="3" stroke-linecap="round" stroke-linejoin="round"/>
<path opacity="0.5" d="M35.1562 15.625C35.5877 15.625 35.9375 15.2752 35.9375 14.8438C35.9375 14.4123 35.5877 14.0625 35.1562 14.0625C34.7248 14.0625 34.375 14.4123 34.375 14.8438C34.375 15.2752 34.7248 15.625 35.1562 15.625Z" stroke="black" stroke-width="2" stroke-linecap="round" stroke-linejoin="round"/>
<path d="M35.1562 16.4062C36.0192 16.4062 36.7188 15.7067 36.7188 14.8438C36.7188 13.9808 36.0192 13.2812 35.1562 13.2812C34.2933 13.2812 33.5938 13.9808 33.5938 14.8438C33.5938 15.7067 34.2933 16.4062 35.1562 16.4062Z" fill="black"/>
</svg>
