<svg width="88" height="56" viewBox="0 0 88 56" fill="none" xmlns="http://www.w3.org/2000/svg">
<path d="M25.4883 16.2969H25.6797L30.5195 1.20312H35.0586L28.2227 21H22.9453L16.082 1.20312H20.6758L25.4883 16.2969ZM33.582 21L40.4453 1.20312H45.7227L52.5586 21H48.1562L46.666 16.4336H39.502L38.0117 21H33.582ZM45.627 13.2344L43.1523 5.66016H43.0156L40.541 13.2344H45.627ZM67.1055 8.09375C66.9414 7.00911 66.472 6.15234 65.6973 5.52344C64.9225 4.89453 63.9518 4.57552 62.7852 4.56641C61.7552 4.57552 60.8529 4.83529 60.0781 5.3457C59.3125 5.85612 58.7201 6.60352 58.3008 7.58789C57.8815 8.56315 57.6719 9.73438 57.6719 11.1016C57.6719 12.4961 57.8815 13.681 58.3008 14.6562C58.7292 15.6315 59.3216 16.3698 60.0781 16.8711C60.8438 17.3724 61.737 17.6276 62.7578 17.6367C63.8971 17.6276 64.8587 17.3268 65.6426 16.7344C66.4264 16.1328 66.9141 15.3034 67.1055 14.2461L71.2617 14.2734C71.1068 15.5221 70.6647 16.6797 69.9355 17.7461C69.2064 18.8125 68.222 19.6693 66.9824 20.3164C65.7428 20.9544 64.3164 21.2734 62.7031 21.2734C60.9258 21.2734 59.3398 20.8724 57.9453 20.0703C56.5599 19.2591 55.4707 18.0879 54.6777 16.5566C53.8848 15.0163 53.4883 13.1979 53.4883 11.1016C53.4883 8.99609 53.8848 7.17773 54.6777 5.64648C55.4798 4.11523 56.5781 2.94857 57.9727 2.14648C59.3672 1.33529 60.944 0.929688 62.7031 0.929688C64.2253 0.929688 65.6016 1.21224 66.832 1.77734C68.0625 2.34245 69.0605 3.16276 69.8262 4.23828C70.6009 5.3138 71.0794 6.59896 71.2617 8.09375H67.1055ZM11.7344 40.8633C11.6523 40.0794 11.3105 39.4688 10.709 39.0312C10.1165 38.5938 9.31901 38.375 8.31641 38.375C7.63281 38.375 7.04492 38.4753 6.55273 38.6758C6.06966 38.8672 5.70052 39.1361 5.44531 39.4824C5.1901 39.8288 5.0625 40.2207 5.0625 40.6582C5.0625 41.3145 5.34505 41.834 5.91016 42.2168C6.48438 42.5905 7.25911 42.8867 8.23438 43.1055L10.0117 43.543C11.8438 43.9622 13.2884 44.6458 14.3457 45.5938C15.403 46.5326 15.9362 47.7812 15.9453 49.3398C15.9453 50.543 15.64 51.5911 15.0293 52.4844C14.4186 53.3776 13.5391 54.0658 12.3906 54.5488C11.2422 55.0319 9.875 55.2734 8.28906 55.2734C6.6849 55.2826 5.29492 55.041 4.11914 54.5488C2.94336 54.0566 2.02734 53.3275 1.37109 52.3613C0.714844 51.3952 0.36849 50.2148 0.332031 48.8203H4.32422C4.38802 49.7956 4.77083 50.543 5.47266 51.0625C6.18359 51.5729 7.10417 51.8281 8.23438 51.8281C8.94531 51.8281 9.56966 51.7233 10.1074 51.5137C10.6452 51.304 11.0599 51.0124 11.3516 50.6387C11.6432 50.265 11.7891 49.832 11.7891 49.3398C11.7891 48.7018 11.5111 48.196 10.9551 47.8223C10.4082 47.4395 9.55599 47.1068 8.39844 46.8242L6.23828 46.3047C2.64714 45.4206 0.851562 43.625 0.851562 40.918C0.851562 39.7422 1.17057 38.7031 1.80859 37.8008C2.45573 36.8893 3.3444 36.1829 4.47461 35.6816C5.61393 35.1803 6.90365 34.9297 8.34375 34.9297C9.78385 34.9297 11.0553 35.1803 12.1582 35.6816C13.2611 36.1829 14.1178 36.8848 14.7285 37.7871C15.3392 38.6803 15.6536 39.7057 15.6719 40.8633H11.7344ZM17.8594 35.2031H34.0742V38.5938H28.0039V55H23.9297V38.5938H17.8594V35.2031ZM33.0625 55L39.9258 35.2031H45.2031L52.0391 55H47.6367L46.1465 50.4336H38.9824L37.4922 55H33.0625ZM45.1074 47.2344L42.6328 39.6602H42.4961L40.0215 47.2344H45.1074ZM66.5039 41.5742C66.2214 40.6354 65.7155 39.9017 64.9863 39.373C64.2572 38.8444 63.3594 38.5755 62.293 38.5664C61.2721 38.5755 60.3743 38.8353 59.5996 39.3457C58.8249 39.8561 58.2233 40.599 57.7949 41.5742C57.3665 42.5495 57.1523 43.7161 57.1523 45.0742C57.1523 46.4505 57.362 47.6309 57.7812 48.6152C58.2005 49.5996 58.7975 50.347 59.5723 50.8574C60.347 51.3678 61.263 51.6276 62.3203 51.6367C63.25 51.6367 64.0521 51.4681 64.7266 51.1309C65.4102 50.7936 65.9342 50.3197 66.2988 49.709C66.6725 49.0892 66.8685 48.3646 66.8867 47.5352H62.5938V44.4453H70.8516V46.9062C70.8516 48.6107 70.487 50.0964 69.7578 51.3633C69.0378 52.6211 68.026 53.5872 66.7227 54.2617C65.4284 54.9362 63.9518 55.2734 62.293 55.2734C60.4518 55.2734 58.8249 54.8633 57.4121 54.043C56.0085 53.2135 54.9147 52.0378 54.1309 50.5156C53.3561 48.9844 52.9688 47.1888 52.9688 45.1289C52.9688 43.0417 53.3698 41.2279 54.1719 39.6875C54.974 38.1471 56.0768 36.9714 57.4805 36.1602C58.8841 35.3398 60.4609 34.9297 62.2109 34.9297C63.6784 34.9297 65.0228 35.2122 66.2441 35.7773C67.4655 36.3424 68.459 37.1309 69.2246 38.1426C69.9993 39.1452 70.4779 40.2891 70.6602 41.5742H66.5039ZM73.8594 35.2031H87.1484V38.5938H77.9609V43.4062H86.4648V46.7969H77.9609V51.6094H87.1758V55H73.8594V35.2031Z" fill="black"/>
</svg>
