<svg width="current" height="current" viewBox="0 0 487 516" fill="none" xmlns="http://www.w3.org/2000/svg">
<path d="M5 460.193L50.6364 399.345L77.5501 391.154C77.5501 391.154 88.0816 350.198 88.0816 346.688C88.0816 343.177 97.4429 320.944 97.4429 320.944L122.016 312.753L124.357 275.308L105.634 257.755L97.4429 270.627L92.7622 213.289L117.336 188.716L113.825 164.142L99.7832 161.802L86.9114 59.9977L90.4219 41.2751L120.846 5H146.59L208.608 34.2541L242.543 71.6993L276.478 77.5501L346.688 130.207L358.389 165.312L384.91 175.844L385.303 216.8L442.641 246.054L466.044 266.339L464.874 287.009L481.256 312.753L477.746 324.455L457.853 332.646L430.939 323.284L400.515 320.944L377.112 332.646L379.452 357.219L350.198 373.601L343.177 402.855L326.795 411.047L285.839 412.217L250.734 389.984L202.758 363.07L159.462 365.41L143.079 395.834L167.653 419.238L173.503 469.555L164.142 507L125.527 470.725L104.464 476.576L89.2517 491.788L62.338 489.448L52.9767 475.406L6.17016 473.065L5 460.193Z" fill="#256AF0" stroke="white" stroke-width="9.36131"/>
<path d="M163.465 132.32C163.465 134.299 163.895 136.279 164.754 138.258C165.626 140.224 166.772 141.982 168.191 143.531C169.611 145.068 171.121 146.214 172.723 146.969L171.238 149C169.936 148.323 168.693 147.411 167.508 146.266C166.336 145.107 165.294 143.785 164.383 142.301C163.471 140.816 162.768 139.247 162.273 137.594C161.779 139.339 161.082 140.999 160.184 142.574C159.285 144.137 158.25 145.53 157.078 146.754C155.906 147.965 154.676 148.922 153.387 149.625L151.785 147.672C153.387 146.852 154.891 145.628 156.297 144C157.716 142.372 158.855 140.53 159.715 138.473C160.574 136.402 161.004 134.352 161.004 132.32V125.68H163.465V132.32ZM168.973 134.625H177.645V122.594H180.066V157.086H177.645V136.695H168.973V134.625ZM217.645 141.656H203.152V146.07H213.699V157.047H211.238V148.141H189.715V146.07H200.73V141.656H186.238V139.625H217.645V141.656ZM190.457 123.375H192.918V127.633H211.043V123.375H213.504V136.109H190.457V123.375ZM211.043 134.078V129.586H192.918V134.078H211.043ZM247.918 127.906C247.905 130.198 247.84 132.197 247.723 133.902C247.605 135.595 247.326 137.542 246.883 139.742H252.215V141.852H237.684V157.086H235.262V141.852H220.809V139.742H244.363C244.845 137.555 245.145 135.589 245.262 133.844C245.392 132.099 245.457 130.12 245.457 127.906V126.969H224.871V124.898H247.918V127.906Z" fill="white"/>
<path d="M265.074 311.891H233.668V309.859H248.16V305.484H237.691V294.234H261.129V296.227H240.113V303.414H261.363V305.484H250.543V309.859H265.074V311.891ZM237.496 320.797C237.496 319.508 237.965 318.408 238.902 317.496C239.853 316.572 241.22 315.868 243.004 315.387C244.788 314.905 246.91 314.664 249.371 314.664C251.819 314.664 253.928 314.905 255.699 315.387C257.47 315.868 258.824 316.572 259.762 317.496C260.699 318.408 261.168 319.508 261.168 320.797C261.168 322.099 260.699 323.212 259.762 324.137C258.824 325.074 257.47 325.784 255.699 326.266C253.941 326.747 251.832 326.995 249.371 327.008C246.897 326.995 244.768 326.747 242.984 326.266C241.214 325.784 239.853 325.081 238.902 324.156C237.965 323.232 237.496 322.112 237.496 320.797ZM239.996 320.797C239.996 321.656 240.367 322.398 241.109 323.023C241.865 323.648 242.939 324.13 244.332 324.469C245.725 324.807 247.372 324.977 249.273 324.977C251.188 324.977 252.854 324.807 254.273 324.469C255.693 324.143 256.786 323.668 257.555 323.043C258.323 322.418 258.707 321.669 258.707 320.797C258.707 319.951 258.323 319.215 257.555 318.59C256.799 317.952 255.719 317.464 254.312 317.125C252.919 316.786 251.272 316.617 249.371 316.617C247.457 316.617 245.79 316.786 244.371 317.125C242.965 317.464 241.884 317.952 241.129 318.59C240.374 319.215 239.996 319.951 239.996 320.797ZM295.074 300.719H300.426V302.828H295.074V312.086H292.613V292.594H295.074V300.719ZM269.996 294.352H272.496V307.047H272.691C275.426 307.047 278.095 306.93 280.699 306.695C283.316 306.448 285.999 306.044 288.746 305.484L289.059 307.594C286.233 308.167 283.499 308.57 280.855 308.805C278.212 309.039 275.491 309.156 272.691 309.156H269.996V294.352ZM273.473 314.078H295.074V326.539H273.473V314.078ZM292.652 324.469V316.07H275.855V324.469H292.652ZM329.918 297.906C329.905 300.198 329.84 302.197 329.723 303.902C329.605 305.595 329.326 307.542 328.883 309.742H334.215V311.852H319.684V327.086H317.262V311.852H302.809V309.742H326.363C326.845 307.555 327.145 305.589 327.262 303.844C327.392 302.099 327.457 300.12 327.457 297.906V296.969H306.871V294.898H329.918V297.906Z" fill="white"/>
<path d="M101.5 267.5L162 248V207H172.5L187 248L226 227L236.5 207H272H295L311 191.5L350 179H382H407" stroke="white" stroke-width="4"/>
</svg>
