<svg width="50" height="50" viewBox="0 0 50 50" fill="none" xmlns="http://www.w3.org/2000/svg">
<path d="M25 35.1562C29.3147 35.1562 32.8125 31.6585 32.8125 27.3438C32.8125 23.029 29.3147 19.5312 25 19.5312C20.6853 19.5312 17.1875 23.029 17.1875 27.3438C17.1875 31.6585 20.6853 35.1562 25 35.1562Z" stroke="#256AF0" stroke-width="4.625" stroke-linecap="round" stroke-linejoin="round"/>
<path d="M38.2812 22.6563C40.1007 22.6547 41.8955 23.0776 43.523 23.8911C45.1504 24.7047 46.5658 25.8866 47.6565 27.3429" stroke="#256AF0" stroke-width="4.625" stroke-linecap="round" stroke-linejoin="round"/>
<path d="M2.34314 27.3433C3.43385 25.8869 4.84919 24.7049 6.47672 23.8913C8.10425 23.0776 9.89911 22.6547 11.7187 22.6563" stroke="#256AF0" stroke-width="4.625" stroke-linecap="round" stroke-linejoin="round"/>
<path d="M13.7567 42.1873C14.7831 40.0791 16.3816 38.302 18.3696 37.0587C20.3577 35.8155 22.6552 35.1563 25 35.1563C27.3448 35.1562 29.6423 35.8155 31.6304 37.0587C33.6184 38.3019 35.2169 40.0791 36.2433 42.1873" stroke="#256AF0" stroke-width="4.625" stroke-linecap="round" stroke-linejoin="round"/>
<path d="M11.7187 22.6562C10.5328 22.656 9.37149 22.3184 8.37031 21.6829C7.36913 21.0474 6.56941 20.1401 6.06455 19.0671C5.55969 17.9941 5.37051 16.7996 5.51912 15.623C5.66773 14.4465 6.14798 13.3366 6.9038 12.4228C7.65961 11.509 8.6598 10.8291 9.78757 10.4624C10.9153 10.0958 12.1241 10.0576 13.2728 10.3523C14.4215 10.6469 15.4626 11.2623 16.2747 12.1265C17.0867 12.9907 17.6361 14.0681 17.8587 15.2329" stroke="#256AF0" stroke-width="4.625" stroke-linecap="round" stroke-linejoin="round"/>
<path d="M32.1412 15.2331C32.3638 14.0681 32.9131 12.9905 33.7252 12.1261C34.5372 11.2617 35.5785 10.6462 36.7273 10.3514C37.8761 10.0566 39.0851 10.0948 40.213 10.4614C41.3409 10.8281 42.3413 11.508 43.0972 12.4219C43.8531 13.3358 44.3334 14.446 44.482 15.6226C44.6306 16.7993 44.4414 17.994 43.9364 19.0671C43.4314 20.1403 42.6316 21.0476 41.6302 21.6831C40.6288 22.3187 39.4673 22.6562 38.2813 22.6563" stroke="#256AF0" stroke-width="4.625" stroke-linecap="round" stroke-linejoin="round"/>
</svg>
