<svg width="23" height="23" viewBox="0 0 23 23" fill="none" xmlns="http://www.w3.org/2000/svg">
<g clip-path="url(#clip0_47_108)">
<path d="M13.4891 6.17443L16.9515 9.81403L7.21907 19.6247L4.17014 19.1489L3.75658 15.9849L13.4891 6.17443Z" stroke="black"/>
<path d="M18.0944 2.59778L20.4541 5.00482L16.3613 9.1797L14.0016 6.77266L18.0944 2.59778Z" stroke="black" stroke-linecap="round" stroke-linejoin="round"/>
<path d="M11.5968 3.96606L19.1129 11.6329" stroke="black" stroke-linecap="round" stroke-linejoin="round"/>
<path d="M16.2147 0.611816L22.4008 6.92196" stroke="black" stroke-linecap="round" stroke-linejoin="round"/>
<path d="M11.9968 7.7074L13.305 9.04183" stroke="black" stroke-linecap="round"/>
<path d="M9.66248 10.0885L10.9707 11.4229" stroke="black" stroke-linecap="round"/>
<path d="M10.83 8.89758L12.1382 10.232" stroke="black" stroke-linecap="round"/>
<path d="M8.49512 11.2794L9.80332 12.6139" stroke="black" stroke-linecap="round"/>
<path d="M6.16077 13.6605L7.46897 14.995" stroke="black" stroke-linecap="round"/>
<path d="M7.32825 12.4696L8.63645 13.804" stroke="black" stroke-linecap="round"/>
<path d="M4.1698 18.7466L4.62169 19.2075L1.11065 22.789L-8.13168e-05 23.0001L4.1698 18.7466Z" fill="black"/>
</g>
<defs>
<clipPath id="clip0_47_108">
<rect width="23" height="23" fill="white"/>
</clipPath>
</defs>
</svg>
